<svg width="100%" height="100%" viewBox="0 0 534 529" xmlns="http://www.w3.org/2000/svg" >
    <g transform="matrix(1,0,0,1,-931.229,-713.871)">
        <g id="knight" transform="matrix(7.72584,0,0,7.72584,-6707.4,-1377.33)">
            <g transform="matrix(0.896121,0,0,0.896121,324.369,70.9755)">
                <path d="M817.91,299.148L763.817,299.148C764.162,293.21 766.399,287.529 770.531,282.107C773.715,277.804 775.609,275.179 776.211,274.232C777.416,272.339 778.148,270.058 778.406,267.39C772.811,269.8 768.465,273.242 765.367,277.718L763.559,280.687C762.268,282.753 761.451,283.915 761.106,284.173C760.59,284.603 760.031,284.818 759.428,284.818C756.76,284.818 754.953,283.915 754.006,282.107C753.834,281.849 753.748,281.548 753.748,281.204C752.887,281.634 752.026,281.849 751.166,281.849C747.035,281.849 743.764,279.267 741.354,274.103C742.043,270.316 745.657,261.58 752.198,247.896C752.887,246.605 753.403,245.572 753.747,244.798C756.329,239.031 757.62,234.685 757.62,231.759C757.62,231.328 757.362,228.919 756.846,224.529L757.878,224.529C762.526,224.529 766.959,225.992 771.175,228.919C773.499,224.873 775.436,222.851 776.985,222.851C779.739,224.314 781.633,226.38 782.665,229.048L784.085,233.308C784.946,233.136 785.678,233.05 786.28,233.05C793.166,233.05 799.965,237.439 806.678,246.218C814.51,256.46 818.426,270.489 818.426,288.305C818.426,292.35 818.254,295.965 817.91,299.148Z"/>
            </g>
            <g transform="matrix(0.896121,0,0,0.896121,324.369,70.9755)">
                <path d="M745.615,273.069C746.131,275.135 747.508,276.641 749.746,277.588C750.607,277.932 751.424,278.104 752.199,278.104L752.457,278.104C752.629,278.104 753.576,277.588 755.297,276.555C755.814,276.21 756.244,276.038 756.588,276.038L757.105,276.038C757.535,276.038 757.75,276.297 757.75,276.813L756.976,279.266C756.976,280.04 757.578,280.428 758.783,280.428C758.955,280.428 760.031,278.921 762.011,275.909C765.798,270.057 771.177,265.624 778.148,262.612C778.836,257.965 780.558,253.876 783.312,250.348C784,249.401 784.689,248.928 785.377,248.928C786.152,248.928 786.539,249.488 786.539,250.606C786.539,250.865 785.765,253.317 784.215,257.965C783.613,259.945 783.312,261.408 783.312,262.354C783.312,262.613 783.398,263.172 783.57,264.033C783.57,270.143 780.988,276.556 775.824,283.269C772.381,287.916 770.488,291.617 770.144,294.372L812.747,294.372C813.091,290.413 813.263,287.486 813.263,285.593C813.263,267.863 807.712,253.705 796.609,243.119C793.252,240.021 790.541,238.471 788.476,238.471L780.73,238.471C780.041,238.127 779.353,236.406 778.664,233.307C778.148,230.811 777.502,229.262 776.728,228.66C775.695,231.758 772.51,234.168 767.174,235.889C764.334,236.75 762.354,237.611 761.236,238.471C760.289,241.484 757.492,247.594 752.844,256.803C748.283,265.926 745.873,271.348 745.614,273.07L745.615,273.069Z" style="fill:white;"/>
            </g>
            <g transform="matrix(0.896121,0,0,0.896121,324.369,70.9755)">
                <path d="M750.65,268.68C751.855,268.68 752.457,269.498 752.457,271.133C752.457,273.285 751.382,274.36 749.23,274.36C748.369,274.36 747.939,273.672 747.939,272.295C747.939,269.885 748.843,268.68 750.65,268.68Z"/>
            </g>
            <g transform="matrix(0.896121,0,0,0.896121,324.369,70.9755)">
                <path d="M759.945,252.93C758.74,252.93 758.138,252.198 758.138,250.735C758.138,248.411 759.515,246.518 762.269,245.055C763.474,244.452 764.593,244.151 765.626,244.151C767.433,244.151 768.423,244.754 768.595,245.959C768.595,247.938 767.046,249.832 763.947,251.639C762.398,252.5 761.064,252.93 759.945,252.93L759.945,252.93Z"/>
            </g>
            <g transform="matrix(0.896121,0,0,0.896121,324.369,70.9755)">
                <path d="M760.978,228.659L761.494,231.112C761.494,231.37 761.365,232.059 761.107,233.178C762.484,233.178 764.378,232.489 766.787,231.112C764.464,229.907 762.527,229.089 760.978,228.659Z" style="fill:white;"/>
            </g>
        </g>
    </g>
</svg>
